<svg viewBox="0 0 32 32" xmlns:xlink="http://www.w3.org/1999/xlink" xmlns="http://www.w3.org/2000/svg" width="32" height="32" fill="none"><rect width="32" height="32" fill="#FAFAFA" rx="6"></rect><path fill="#333F48" fill-rule="evenodd" d="M14.33 12.56c-.665 0-1.201.56-1.201 1.251 0 .692.541 1.252 1.2 1.252.66 0 1.208-.56 1.208-1.252 0-.691-.542-1.251-1.207-1.251Zm6.445 11-9.208-5.635-1.556-5.72s-.09-.508-.023-.76c.045-.142.525-.308.525-.308l5.638-1.634s4.98 2.605 8.396 4.502c.835 3.812-1.669 8.12-3.778 9.555h.006Zm-3.58 1.794c-1.788-2.2-5.64-6.874-5.64-6.874l8.927 5.274s-.778 1.011-3.288 1.6Zm-3.92-.16c-.338-1.423-1.358-5.646-1.358-5.646l4.804 5.966s-2.132.291-3.446-.32Zm2.166-20.051C9.684 5.143 5.009 10.005 5.009 16c0 5.994 4.67 10.857 10.432 10.857 5.762 0 10.431-4.863 10.431-10.857 0-5.995-4.669-10.857-10.431-10.857Z" clip-rule="evenodd"></path></svg>
